<svg width="154" height="32" viewBox="0 0 154 32" fill="none" xmlns="http://www.w3.org/2000/svg">
<g clip-path="url(#clip0_3014_20336)">
<path d="M11.2716 9.69227L8.04243 11.7017C8.04243 11.7017 3.01532 5.16812 0 3.44542L35.2226 0C35.2226 0 8.68873 3.73214 6.60645 5.02711L11.2716 9.69227Z" fill="#4E4E4F"/>
<path d="M37.3699 0C37.3699 0 25.452 3.17748 16.6552 20.2823L13.245 12.7429L10.373 14.898C10.373 14.898 15.7597 24.6984 16.0958 29.8195C16.0958 29.8195 23.459 8.50777 37.3699 0Z" fill="#34A487"/>
<path d="M2.08203 19.6537C2.08203 19.6537 11.1797 8.41027 32.2118 1.26562C32.2118 1.26562 16.2021 6.90613 2.08203 19.6537Z" fill="#4E4E4F"/>
<path d="M108.374 27.0021C108.039 26.3174 107.36 25.9751 106.339 25.9751C105.54 25.9558 104.759 26.204 104.118 26.6801C103.481 27.1619 103.049 27.8646 102.905 28.6496C102.85 28.8759 102.822 29.1078 102.82 29.3406C102.803 29.6245 102.854 29.9085 102.97 30.1686C103.085 30.4287 103.261 30.6573 103.483 30.8353C103.953 31.1695 104.522 31.3352 105.098 31.3053C105.565 31.3133 106.03 31.2246 106.462 31.0446C106.894 30.8646 107.284 30.5973 107.608 30.2595L108.057 30.5862C107.663 30.9989 107.188 31.3263 106.663 31.5479C106.137 31.7694 105.572 31.8805 105.001 31.8741C103.962 31.8741 103.197 31.585 102.705 31.0068C102.356 30.586 102.174 30.0515 102.193 29.5051C102.194 29.2314 102.226 28.9587 102.287 28.6919C102.464 27.7347 102.989 26.8768 103.76 26.2829C104.538 25.6946 105.493 25.3888 106.468 25.4157C107.706 25.4157 108.542 25.8387 108.978 26.6848L108.374 27.0021Z" fill="#4E4E4F"/>
<path d="M115.84 31.2414C115.549 31.4999 115.21 31.6974 114.841 31.8219C114.525 31.8878 114.202 31.9154 113.88 31.9042C113.362 31.9311 112.851 31.7766 112.434 31.467C112.237 31.3054 112.081 31.0993 111.978 30.8657C111.876 30.632 111.83 30.3774 111.844 30.1227C111.847 29.9221 111.869 29.7221 111.91 29.5258C112.041 28.8373 112.416 28.2191 112.966 27.7843C113.518 27.3499 114.204 27.1206 114.907 27.1356C115.428 27.1098 115.943 27.2641 116.364 27.5727C116.561 27.737 116.716 27.945 116.818 28.18C116.92 28.415 116.966 28.6706 116.952 28.9265C116.947 29.3702 116.845 29.8076 116.653 30.2077C116.461 30.6077 116.184 30.9606 115.84 31.2414ZM116.061 28.1861C115.921 27.9866 115.723 27.8348 115.494 27.7514C115.264 27.6963 115.026 27.6741 114.789 27.6855C114.255 27.6672 113.732 27.8423 113.317 28.1786C112.901 28.515 112.622 28.99 112.528 29.5164C112.493 29.6705 112.475 29.8282 112.474 29.9864C112.463 30.1783 112.497 30.3703 112.573 30.5469C112.648 30.7236 112.765 30.8801 112.911 31.0041C113.225 31.2404 113.612 31.3593 114.004 31.3401C114.538 31.3535 115.06 31.1788 115.478 30.8466C115.891 30.5127 116.173 30.043 116.272 29.5211C116.308 29.3613 116.327 29.1983 116.329 29.0346C116.337 28.7326 116.243 28.4367 116.061 28.1955V28.1861Z" fill="#4E4E4F"/>
<path d="M123.689 31.8204L123.792 31.3245C123.306 31.7215 122.693 31.9301 122.065 31.9121C121.661 31.9314 121.259 31.8343 120.909 31.6324C120.739 31.5268 120.601 31.3775 120.508 31.2001C120.416 31.0227 120.373 30.8238 120.385 30.6241C120.386 30.4804 120.402 30.3371 120.432 30.1964L121.057 27.2539H121.675L121.047 30.1752C121.025 30.2827 121.013 30.3921 121.012 30.5019C121.012 31.0613 121.404 31.341 122.187 31.341C122.655 31.3592 123.114 31.2045 123.475 30.9062C123.825 30.5918 124.062 30.1703 124.147 29.7076L124.669 27.2422H125.287L124.305 31.8204H123.689Z" fill="#4E4E4F"/>
<path d="M129.299 29.9545L128.907 31.8041H128.291L129.262 27.24H129.88L129.748 27.8651C130.341 27.3585 131.105 27.0978 131.884 27.1366L131.774 27.6959C130.448 27.6959 129.624 28.4488 129.299 29.9545Z" fill="#4E4E4F"/>
<path d="M134.564 31.8028L135.554 27.1353H136.17L135.18 31.8028H134.564ZM135.975 26.5289C135.843 26.5289 135.763 26.4514 135.74 26.2939L135.888 25.6217C135.92 25.5578 135.967 25.5029 136.026 25.4619C136.085 25.4208 136.153 25.395 136.224 25.3867C136.325 25.3867 136.416 25.4549 136.503 25.5912L136.355 26.3197C136.259 26.4352 136.123 26.5099 135.975 26.5289Z" fill="#4E4E4F"/>
<path d="M139.884 29.758C139.866 29.8691 139.856 29.9815 139.856 30.0941C139.856 30.9284 140.349 31.3444 141.341 31.3444C141.735 31.3625 142.126 31.2718 142.472 31.0824C142.818 30.8929 143.105 30.612 143.301 30.2704H143.936C143.693 30.7821 143.306 31.2111 142.821 31.5037C142.336 31.7963 141.775 31.9395 141.21 31.9155C140.709 31.9461 140.213 31.8088 139.8 31.5254C139.609 31.3711 139.459 31.1733 139.362 30.9487C139.265 30.7241 139.223 30.4793 139.24 30.2351C139.243 30.0031 139.271 29.7722 139.325 29.5465C139.454 28.8645 139.82 28.25 140.358 27.8111C140.895 27.3722 141.571 27.137 142.265 27.1469C142.765 27.1243 143.259 27.2618 143.675 27.5394C143.874 27.6856 144.034 27.8789 144.14 28.102C144.247 28.3251 144.296 28.5711 144.284 28.8179C144.281 29.0062 144.259 29.1936 144.218 29.3773L144.143 29.7604L139.884 29.758ZM142.152 27.6945C141.681 27.6809 141.218 27.82 140.833 28.0911C140.447 28.3622 140.16 28.7507 140.013 29.1987H143.59C143.602 29.1208 143.608 29.0423 143.609 28.9636C143.617 28.785 143.583 28.6071 143.51 28.444C143.437 28.2808 143.327 28.1369 143.189 28.0236C142.89 27.7996 142.525 27.6836 142.152 27.6945Z" fill="#4E4E4F"/>
<path d="M148.35 29.9545L147.958 31.8041H147.342L148.312 27.24H148.938L148.808 27.8651C149.401 27.3585 150.166 27.0978 150.945 27.1366L150.834 27.6959C149.502 27.6959 148.674 28.4488 148.35 29.9545Z" fill="#4E4E4F"/>
<path d="M38.0458 9.25705C37.9317 9.25468 37.8206 9.29394 37.7332 9.3675C37.6516 9.43467 37.5891 9.52224 37.5523 9.62133C37.5504 9.63549 37.5456 9.64911 37.5382 9.66128C37.526 9.6899 37.5173 9.71989 37.5123 9.75059L37.4747 9.93862C37.4559 10.0209 37.4324 10.1243 37.4019 10.2441C37.3713 10.364 37.3361 10.5168 37.2914 10.6977C37.2467 10.8787 37.1974 11.0926 37.1363 11.3346C37.122 11.4092 37.1238 11.4859 37.1416 11.5597C37.1594 11.6335 37.1929 11.7026 37.2397 11.7624C37.2832 11.8207 37.34 11.8678 37.4054 11.8997C37.4709 11.9316 37.543 11.9474 37.6157 11.9457H43.9378C44.4792 11.9289 45.0166 12.0435 45.5041 12.2796C45.9915 12.5158 46.4145 12.8665 46.7369 13.3018C47.0778 13.737 47.3131 14.2454 47.4244 14.7869C47.5357 15.3284 47.52 15.8884 47.3785 16.4228C47.3802 16.4361 47.3802 16.4495 47.3785 16.4628C47.3708 16.4907 47.3645 16.5189 47.3597 16.5474C47.3597 16.585 47.3386 16.6414 47.3197 16.7166C47.3009 16.7918 47.2798 16.8811 47.2492 16.9939C47.2187 17.1068 47.1834 17.2478 47.1458 17.417C47.1082 17.5862 47.0589 17.7813 47.0025 18.0069C46.9461 18.2325 46.8803 18.491 46.8074 18.7872C46.7345 19.0833 46.6546 19.4147 46.5724 19.786C46.3637 20.6082 45.8895 21.3385 45.2234 21.8636C44.557 22.3961 43.7261 22.6803 42.8732 22.6674H30.1515C30.15 22.6525 30.15 22.6376 30.1515 22.6227C30.1515 22.6016 30.1656 22.5663 30.1773 22.5193C30.1891 22.4723 30.2079 22.4041 30.229 22.3172C30.2502 22.2302 30.2784 22.1174 30.3136 21.9788C30.3489 21.8401 30.3865 21.6732 30.4311 21.4734C30.4758 21.2737 30.5275 21.0387 30.5933 20.7684C30.6591 20.4981 30.7343 20.1832 30.8283 19.8283C30.9223 19.4734 31.0116 19.0762 31.115 18.6344H42.2927C42.4068 18.6374 42.5187 18.6019 42.6103 18.5337C42.7019 18.4655 42.768 18.3686 42.7979 18.2584C42.7965 18.2459 42.7965 18.2333 42.7979 18.2208C42.7979 18.202 42.7979 18.1714 42.8167 18.1291C42.8355 18.0868 42.8402 18.0233 42.8637 17.9411L42.9413 17.6356C42.9719 17.5134 43.0071 17.3629 43.0518 17.182C43.0964 17.001 43.1411 16.7871 43.1928 16.5451C43.2238 16.477 43.2361 16.4018 43.2282 16.3274C43.2204 16.253 43.1927 16.1821 43.1481 16.122C43.1071 16.0625 43.0519 16.0141 42.9875 15.9813C42.923 15.9484 42.8514 15.9322 42.7791 15.934H36.4101C35.8705 15.952 35.3345 15.8406 34.8467 15.6092C34.359 15.3778 33.9336 15.0331 33.6063 14.6038C32.9028 13.7185 32.6858 12.6735 32.9553 11.4686C32.9538 11.4561 32.9538 11.4435 32.9553 11.431C32.9553 11.4122 32.9694 11.384 32.9811 11.3393C32.9929 11.2947 33.0093 11.2383 33.0258 11.1654C33.0422 11.0926 33.0657 10.9986 33.0916 10.8857C33.1174 10.7729 33.1527 10.6343 33.195 10.4698C33.2373 10.3052 33.2866 10.1078 33.3383 9.87986C33.39 9.65189 33.4535 9.38866 33.5264 9.09488C33.5992 8.80111 33.6838 8.46738 33.7802 8.09369C34.515 6.21352 35.7442 5.27344 37.4677 5.27344H50.2411C50.2423 5.2883 50.2423 5.30323 50.2411 5.31809L50.2152 5.4215C50.2011 5.46851 50.1847 5.53666 50.1635 5.62362C50.1424 5.71057 50.1118 5.82104 50.0718 5.955C50.0319 6.08897 49.9896 6.25348 49.9426 6.44854C49.8956 6.64361 49.8368 6.87393 49.7663 7.14186C49.6958 7.40978 49.6183 7.72001 49.5313 8.08194C49.4443 8.44388 49.3386 8.82931 49.2258 9.25705H38.0458Z" fill="#4E4E4F"/>
<path d="M51.4797 5.28125H55.7524C55.7543 5.28977 55.7543 5.29858 55.7524 5.3071C55.7446 5.3213 55.7383 5.33626 55.7336 5.35175C55.7221 5.3792 55.7127 5.40748 55.7054 5.43636C55.7054 5.47161 55.6866 5.51391 55.6749 5.56562C55.6631 5.61732 55.6443 5.68079 55.6232 5.75364C55.602 5.8265 55.5785 5.9111 55.5574 6.00746C55.5362 6.10382 55.5103 6.20958 55.4798 6.32474C55.4492 6.43991 55.414 6.57621 55.3764 6.72897C55.3388 6.88174 55.2941 7.04625 55.2448 7.22722C55.1954 7.40818 55.1484 7.60796 55.0967 7.82418C55.045 8.0404 54.9862 8.27777 54.9204 8.52924C54.8546 8.78072 54.7841 9.06038 54.7066 9.35416H57.7618L56.9181 13.2085H53.8158C53.818 13.2178 53.818 13.2274 53.8158 13.2367C53.8086 13.2532 53.8039 13.2706 53.8017 13.2884C53.8017 13.3143 53.8017 13.3448 53.7829 13.3848C53.7641 13.4247 53.7641 13.4741 53.75 13.5352C53.7359 13.5963 53.7218 13.6668 53.7054 13.7491C53.6889 13.8313 53.6631 13.9277 53.6325 14.0405C53.602 14.1533 53.5714 14.2755 53.5362 14.4236C53.5009 14.5716 53.4633 14.7291 53.4187 14.9101L53.2776 15.5141C53.2236 15.735 53.1672 15.9841 53.1014 16.2473C53.0356 16.5106 52.9651 16.8043 52.8875 17.1169C52.81 17.4295 52.723 17.7703 52.6266 18.1416C52.6118 18.2466 52.6182 18.3534 52.6452 18.456C52.6722 18.5585 52.7195 18.6545 52.7841 18.7386C52.8482 18.8246 52.9327 18.8934 53.0298 18.9389C53.127 18.9844 53.2339 19.0052 53.3411 18.9994H55.562L54.6948 22.6752H51.7782C51.2398 22.6935 50.7053 22.5786 50.2219 22.3408C49.7386 22.1031 49.3214 21.7497 49.0073 21.312C48.6715 20.8649 48.4397 20.3485 48.3287 19.8005C48.2177 19.2524 48.2304 18.6865 48.3657 18.144L51.4797 5.28125Z" fill="#4E4E4F"/>
<path d="M60.2167 11.997C61.8426 10.3719 64.0293 9.4316 66.3273 9.36947H69.5C70.009 9.35042 70.5154 9.45082 70.9786 9.66263C71.4418 9.87444 71.849 10.1918 72.1675 10.5892C72.4909 10.9682 72.7167 11.4205 72.8253 11.9068C72.9338 12.393 72.9218 12.8984 72.7903 13.3789C72.7222 13.6398 72.6611 13.8654 72.6094 14.0534C72.5577 14.2415 72.513 14.406 72.4801 14.5352C72.4472 14.6645 72.4143 14.7703 72.3885 14.8596C72.3626 14.9489 72.3462 15.0123 72.3368 15.0617C72.3322 15.0948 72.3235 15.1271 72.3109 15.158C72.3031 15.17 72.2982 15.1838 72.2968 15.198C72.1117 15.9952 71.6494 16.7007 70.9924 17.1886C70.3334 17.6864 69.5268 17.9495 68.701 17.936H64.7714C64.5231 17.9122 64.2879 17.813 64.0976 17.6517C63.9073 17.4904 63.7709 17.2746 63.7068 17.0335C63.6357 16.773 63.6216 16.5003 63.6654 16.2338C63.7092 15.9674 63.8099 15.7135 63.9606 15.4894C64.2755 14.9653 64.8584 14.6269 65.7068 14.4694H68.1863C68.238 14.2626 68.2826 14.0817 68.3226 13.9312C68.3625 13.7808 68.3954 13.6516 68.426 13.5482C68.4565 13.4447 68.4801 13.3578 68.4989 13.2896C68.5177 13.2215 68.5271 13.1651 68.5365 13.1275C68.5459 13.0899 68.5529 13.0617 68.5553 13.0476C68.557 13.0374 68.557 13.0271 68.5553 13.017H65.8878C65.0291 12.9969 64.1869 13.254 63.4859 13.7503C62.8106 14.2391 62.3303 15.0225 62.0452 16.1005C61.8999 16.8309 62.0296 17.5892 62.4095 18.2298C62.7902 18.8784 63.5391 19.2028 64.6563 19.2028H71.2886C71.1945 19.5929 71.1052 19.9384 71.023 20.2416C70.9407 20.5447 70.8679 20.8103 70.8021 21.0406C70.7363 21.271 70.6822 21.4707 70.6399 21.6446C70.5976 21.8186 70.5576 21.9619 70.5224 22.0794C70.4871 22.1969 70.4613 22.2909 70.4448 22.3638C70.4284 22.4367 70.4119 22.4954 70.4002 22.5401C70.3884 22.5847 70.379 22.6129 70.3743 22.6317C70.3727 22.6442 70.3727 22.6568 70.3743 22.6693H62.7855C60.9852 22.6693 59.6918 22.2385 58.9053 21.3767C58.1263 20.5401 57.6945 19.4387 57.6973 18.2956C57.6973 15.7448 58.5371 13.6453 60.2167 11.997Z" fill="#4E4E4F"/>
<path d="M77.9617 22.6221C75.7807 22.3887 74.3401 21.4431 73.6397 19.7854C72.9393 18.1277 73.1211 16.0744 74.185 13.6255C76.0024 10.5969 78.8227 9.18674 82.6457 9.39512H88.7093L88.5142 10.0814H88.5377L87.473 14.2883L85.3438 22.6738H81.0899L77.9617 22.6221ZM83.2333 14.2883H83.2192L83.5693 12.8781H81.5317C80.435 12.8969 79.5521 13.1891 78.883 13.7548C78.235 14.2826 77.7568 14.9897 77.5082 15.7877C77.0491 17.8715 77.7714 18.9009 79.6751 18.8759H82.0394L83.2333 14.2883Z" fill="#4E4E4F"/>
<path d="M101.68 17.9536H97.4994L98.6745 12.9829H96.0588C94.1974 12.9641 92.9682 13.9896 92.3713 16.0593C92.2057 16.7908 92.3295 17.558 92.7168 18.2004C93.0991 18.8271 93.819 19.1561 94.8766 19.1875H101.394L100.484 22.6658H93.0716C91.3481 22.6391 90.0947 22.1981 89.3113 21.3426C88.5338 20.4968 88.0852 19.4003 88.0469 18.2521C88.1252 15.6809 88.9666 13.5712 90.571 11.923C92.1341 10.297 94.2742 9.35149 96.5288 9.29071H99.6311L100.696 5.28125H104.872L101.68 17.9536Z" fill="#4E4E4F"/>
<path d="M105.459 8.16261C106.125 6.24014 107.354 5.27969 109.147 5.28125H121.102L120.191 9.25781H113.232H109.871C109.762 9.26315 109.659 9.30451 109.577 9.37532C109.476 9.45601 109.402 9.56481 109.363 9.6879L108.844 11.984H115.854L114.999 15.9559H107.948L106.444 22.6681H102.186L105.459 8.16261Z" fill="#34A487"/>
<path d="M121.181 22.6221C119.003 22.3902 117.562 21.4447 116.859 19.7854C116.155 18.1262 116.337 16.0729 117.404 13.6255C119.22 10.5969 122.04 9.18674 125.865 9.39512H131.928L131.733 10.0814H131.747L130.683 14.2883L128.553 22.6738H124.311L121.181 22.6221ZM126.452 14.2883H126.438L126.791 12.8781H124.751C123.654 12.8969 122.772 13.1891 122.104 13.7548C121.455 14.2818 120.976 14.9891 120.727 15.7877C120.262 17.8778 120.985 18.9127 122.896 18.8923H125.247L126.452 14.2883Z" fill="#34A487"/>
<path d="M146.723 9.38237L147.715 5.28125H151.992C151.994 5.28977 151.994 5.29858 151.992 5.3071C151.984 5.3213 151.978 5.33626 151.973 5.35175C151.962 5.37893 151.953 5.4073 151.948 5.43636C151.948 5.47161 151.926 5.51391 151.915 5.56562C151.903 5.61732 151.884 5.68079 151.863 5.75364C151.842 5.8265 151.818 5.9111 151.797 6.00746C151.776 6.10382 151.75 6.20958 151.72 6.32474C151.689 6.43991 151.654 6.57621 151.616 6.72897C151.579 6.88174 151.534 7.04625 151.485 7.22722C151.435 7.40818 151.388 7.60796 151.337 7.82418C151.285 8.0404 151.226 8.27777 151.16 8.52924C151.094 8.78072 151.024 9.06038 150.946 9.35416H154.002L153.167 13.2109H150.065C150.067 13.2201 150.067 13.2298 150.065 13.2391C150.058 13.2555 150.053 13.2729 150.051 13.2908C150.051 13.3166 150.051 13.3472 150.032 13.3871C150.013 13.4271 150.013 13.4764 149.999 13.5375C149.985 13.5987 149.971 13.6692 149.955 13.7514C149.938 13.8337 149.912 13.93 149.884 14.0428C149.856 14.1556 149.821 14.2779 149.785 14.4259C149.75 14.574 149.713 14.7314 149.668 14.9124L149.527 15.5164C149.475 15.7373 149.416 15.9818 149.351 16.2497C149.285 16.5176 149.214 16.8067 149.137 17.1193C149.059 17.4318 148.972 17.7726 148.878 18.144C148.863 18.2488 148.869 18.3556 148.895 18.4581C148.922 18.5606 148.969 18.6568 149.033 18.7409C149.097 18.8269 149.182 18.8958 149.279 18.9413C149.376 18.9868 149.483 19.0076 149.59 19.0018H151.811L150.953 22.6752H148.013C147.475 22.6935 146.94 22.5786 146.457 22.3408C145.974 22.1031 145.556 21.7497 145.242 21.312C144.907 20.8649 144.675 20.3485 144.564 19.8005C144.453 19.2524 144.465 18.6865 144.601 18.144L145.882 12.8489H137.562C137.026 12.8239 136.719 13.0181 136.641 13.4318C136.61 13.5616 136.627 13.6982 136.691 13.8157C136.754 13.9332 136.858 14.0232 136.984 14.0687C137.333 14.1827 137.702 14.2228 138.067 14.1862L139.795 14.1345C141.413 14.1862 142.484 14.6421 143.007 15.5023C143.531 16.3625 143.672 17.5117 143.43 18.9501C142.891 21.529 141.113 22.7707 138.095 22.6752H130.387L131.125 19.0676H137.966C138.695 19.1263 139.13 18.9031 139.278 18.3907C139.294 17.829 138.876 17.5729 138.018 17.6246H136.098C134.766 17.5979 133.748 17.1702 133.042 16.3413C132.337 15.5125 132.119 14.3656 132.387 12.9006C133.158 10.3749 135.1 9.19983 138.215 9.37532H146.725L146.723 9.38237Z" fill="#34A487"/>
<mask id="mask0_3014_20336" style="mask-type:luminance" maskUnits="userSpaceOnUse" x="30" y="28" width="71" height="2">
<path d="M100.436 28.8828H30.1504V29.8205H100.436V28.8828Z" fill="white"/>
</mask>
<g mask="url(#mask0_3014_20336)">
<path d="M30.5147 28.8828H30.1504V29.8205H30.5147V28.8828Z" fill="#34A487"/>
<path d="M30.8799 28.8828H30.5156V29.8205H30.8799V28.8828Z" fill="#34A487"/>
<path d="M31.2432 28.8828H30.8789V29.8205H31.2432V28.8828Z" fill="#35A487"/>
<path d="M31.6084 28.8828H31.2441V29.8205H31.6084V28.8828Z" fill="#35A487"/>
<path d="M31.9717 28.8828H31.6074V29.8205H31.9717V28.8828Z" fill="#36A488"/>
<path d="M32.3369 28.8828H31.9727V29.8205H32.3369V28.8828Z" fill="#37A588"/>
<path d="M32.7002 28.8828H32.3359V29.8205H32.7002V28.8828Z" fill="#37A588"/>
<path d="M33.0655 28.8828H32.7012V29.8205H33.0655V28.8828Z" fill="#38A588"/>
<path d="M33.4287 28.8828H33.0645V29.8205H33.4287V28.8828Z" fill="#39A588"/>
<path d="M33.794 28.8828H33.4297V29.8205H33.794V28.8828Z" fill="#3AA588"/>
<path d="M34.1573 28.8828H33.793V29.8205H34.1573V28.8828Z" fill="#3BA589"/>
<path d="M34.5225 28.8828H34.1582V29.8205H34.5225V28.8828Z" fill="#3BA589"/>
<path d="M34.8858 28.8828H34.5215V29.8205H34.8858V28.8828Z" fill="#3CA689"/>
<path d="M35.251 28.8828H34.8867V29.8205H35.251V28.8828Z" fill="#3DA689"/>
<path d="M35.6143 28.8828H35.25V29.8205H35.6143V28.8828Z" fill="#3EA68A"/>
<path d="M35.9756 28.8828H35.6113V29.8205H35.9756V28.8828Z" fill="#3FA68A"/>
<path d="M36.3408 28.8828H35.9766V29.8205H36.3408V28.8828Z" fill="#40A68A"/>
<path d="M36.7061 28.8828H36.3418V29.8205H36.7061V28.8828Z" fill="#41A68A"/>
<path d="M37.0694 28.8828H36.7051V29.8205H37.0694V28.8828Z" fill="#42A78B"/>
<path d="M37.4346 28.8828H37.0703V29.8205H37.4346V28.8828Z" fill="#43A78B"/>
<path d="M37.7979 28.8828H37.4336V29.8205H37.7979V28.8828Z" fill="#43A78B"/>
<path d="M38.1631 28.8828H37.7988V29.8205H38.1631V28.8828Z" fill="#44A78C"/>
<path d="M38.5264 28.8828H38.1621V29.8205H38.5264V28.8828Z" fill="#45A78C"/>
<path d="M38.8916 28.8828H38.5273V29.8205H38.8916V28.8828Z" fill="#46A88C"/>
<path d="M39.2549 28.8828H38.8906V29.8205H39.2549V28.8828Z" fill="#47A88C"/>
<path d="M39.6201 28.8828H39.2559V29.8205H39.6201V28.8828Z" fill="#48A88D"/>
<path d="M39.9834 28.8828H39.6191V29.8205H39.9834V28.8828Z" fill="#49A88D"/>
<path d="M40.3487 28.8828H39.9844V29.8205H40.3487V28.8828Z" fill="#4AA98D"/>
<path d="M40.7119 28.8828H40.3477V29.8205H40.7119V28.8828Z" fill="#4BA98E"/>
<path d="M41.0772 28.8828H40.7129V29.8205H41.0772V28.8828Z" fill="#4CA98E"/>
<path d="M41.4405 28.8828H41.0762V29.8205H41.4405V28.8828Z" fill="#4DA98E"/>
<path d="M41.8057 28.8828H41.4414V29.8205H41.8057V28.8828Z" fill="#4EAA8F"/>
<path d="M42.169 28.8828H41.8047V29.8205H42.169V28.8828Z" fill="#4FAA8F"/>
<path d="M42.5342 28.8828H42.1699V29.8205H42.5342V28.8828Z" fill="#4FAA8F"/>
<path d="M42.8975 28.8828H42.5332V29.8205H42.8975V28.8828Z" fill="#50AA90"/>
<path d="M43.2627 28.8828H42.8984V29.8205H43.2627V28.8828Z" fill="#51AB90"/>
<path d="M43.626 28.8828H43.2617V29.8205H43.626V28.8828Z" fill="#52AB90"/>
<path d="M43.9893 28.8828H43.625V29.8205H43.9893V28.8828Z" fill="#53AB91"/>
<path d="M44.3526 28.8828H43.9883V29.8205H44.3526V28.8828Z" fill="#54AB91"/>
<path d="M44.7178 28.8828H44.3535V29.8205H44.7178V28.8828Z" fill="#55AC92"/>
<path d="M45.0811 28.8828H44.7168V29.8205H45.0811V28.8828Z" fill="#56AC92"/>
<path d="M45.4463 28.8828H45.082V29.8205H45.4463V28.8828Z" fill="#57AC92"/>
<path d="M45.8096 28.8828H45.4453V29.8205H45.8096V28.8828Z" fill="#58AC93"/>
<path d="M46.1748 28.8828H45.8105V29.8205H46.1748V28.8828Z" fill="#59AD93"/>
<path d="M46.5381 28.8828H46.1738V29.8205H46.5381V28.8828Z" fill="#5AAD93"/>
<path d="M46.9033 28.8828H46.5391V29.8205H46.9033V28.8828Z" fill="#5BAD94"/>
<path d="M47.2666 28.8828H46.9023V29.8205H47.2666V28.8828Z" fill="#5CAE94"/>
<path d="M47.6319 28.8828H47.2676V29.8205H47.6319V28.8828Z" fill="#5DAE95"/>
<path d="M47.9951 28.8828H47.6309V29.8205H47.9951V28.8828Z" fill="#5DAE95"/>
<path d="M48.3604 28.8828H47.9961V29.8205H48.3604V28.8828Z" fill="#5EAF96"/>
<path d="M48.7237 28.8828H48.3594V29.8205H48.7237V28.8828Z" fill="#5FAF96"/>
<path d="M49.0889 28.8828H48.7246V29.8205H49.0889V28.8828Z" fill="#60AF96"/>
<path d="M49.4522 28.8828H49.0879V29.8205H49.4522V28.8828Z" fill="#61AF97"/>
<path d="M49.8174 28.8828H49.4531V29.8205H49.8174V28.8828Z" fill="#62B097"/>
<path d="M50.1807 28.8828H49.8164V29.8205H50.1807V28.8828Z" fill="#63B098"/>
<path d="M50.5459 28.8828H50.1816V29.8205H50.5459V28.8828Z" fill="#64B098"/>
<path d="M50.9092 28.8828H50.5449V29.8205H50.9092V28.8828Z" fill="#65B199"/>
<path d="M51.2744 28.8828H50.9102V29.8205H51.2744V28.8828Z" fill="#66B199"/>
<path d="M51.6358 28.8828H51.2715V29.8205H51.6358V28.8828Z" fill="#67B19A"/>
<path d="M52.001 28.8828H51.6367V29.8205H52.001V28.8828Z" fill="#68B29A"/>
<path d="M52.3643 28.8828H52V29.8205H52.3643V28.8828Z" fill="#69B29A"/>
<path d="M52.7295 28.8828H52.3652V29.8205H52.7295V28.8828Z" fill="#6AB29B"/>
<path d="M53.0928 28.8828H52.7285V29.8205H53.0928V28.8828Z" fill="#6BB39B"/>
<path d="M53.458 28.8828H53.0938V29.8205H53.458V28.8828Z" fill="#6CB39C"/>
<path d="M53.8213 28.8828H53.457V29.8205H53.8213V28.8828Z" fill="#6DB39C"/>
<path d="M54.1865 28.8828H53.8223V29.8205H54.1865V28.8828Z" fill="#6EB49D"/>
<path d="M54.5498 28.8828H54.1855V29.8205H54.5498V28.8828Z" fill="#6FB49D"/>
<path d="M54.9151 28.8828H54.5508V29.8205H54.9151V28.8828Z" fill="#70B49E"/>
<path d="M55.2783 28.8828H54.9141V29.8205H55.2783V28.8828Z" fill="#71B59E"/>
<path d="M55.6436 28.8828H55.2793V29.8205H55.6436V28.8828Z" fill="#72B59F"/>
<path d="M56.0069 28.8828H55.6426V29.8205H56.0069V28.8828Z" fill="#73B69F"/>
<path d="M56.3721 28.8828H56.0078V29.8205H56.3721V28.8828Z" fill="#74B6A0"/>
<path d="M56.7354 28.8828H56.3711V29.8205H56.7354V28.8828Z" fill="#75B6A0"/>
<path d="M57.1006 28.8828H56.7363V29.8205H57.1006V28.8828Z" fill="#76B7A1"/>
<path d="M57.4639 28.8828H57.0996V29.8205H57.4639V28.8828Z" fill="#76B7A1"/>
<path d="M57.8291 28.8828H57.4648V29.8205H57.8291V28.8828Z" fill="#77B7A2"/>
<path d="M58.1924 28.8828H57.8281V29.8205H58.1924V28.8828Z" fill="#78B8A2"/>
<path d="M58.5576 28.8828H58.1934V29.8205H58.5576V28.8828Z" fill="#79B8A3"/>
<path d="M58.9209 28.8828H58.5566V29.8205H58.9209V28.8828Z" fill="#7AB9A4"/>
<path d="M59.2862 28.8828H58.9219V29.8205H59.2862V28.8828Z" fill="#7BB9A4"/>
<path d="M59.6475 28.8828H59.2832V29.8205H59.6475V28.8828Z" fill="#7CB9A5"/>
<path d="M60.0127 28.8828H59.6484V29.8205H60.0127V28.8828Z" fill="#7DBAA5"/>
<path d="M60.376 28.8828H60.0117V29.8205H60.376V28.8828Z" fill="#7EBAA6"/>
<path d="M60.7412 28.8828H60.377V29.8205H60.7412V28.8828Z" fill="#7FBBA6"/>
<path d="M61.1045 28.8828H60.7402V29.8205H61.1045V28.8828Z" fill="#80BBA7"/>
<path d="M61.4697 28.8828H61.1055V29.8205H61.4697V28.8828Z" fill="#81BBA7"/>
<path d="M61.833 28.8828H61.4688V29.8205H61.833V28.8828Z" fill="#82BCA8"/>
<path d="M62.1983 28.8828H61.834V29.8205H62.1983V28.8828Z" fill="#83BCA9"/>
<path d="M62.5616 28.8828H62.1973V29.8205H62.5616V28.8828Z" fill="#84BDA9"/>
<path d="M62.9268 28.8828H62.5625V29.8205H62.9268V28.8828Z" fill="#85BDAA"/>
<path d="M63.2901 28.8828H62.9258V29.8205H63.2901V28.8828Z" fill="#86BEAA"/>
<path d="M63.6553 28.8828H63.291V29.8205H63.6553V28.8828Z" fill="#87BEAB"/>
<path d="M64.0186 28.8828H63.6543V29.8205H64.0186V28.8828Z" fill="#88BEAC"/>
<path d="M64.3838 28.8828H64.0195V29.8205H64.3838V28.8828Z" fill="#89BFAC"/>
<path d="M64.7471 28.8828H64.3828V29.8205H64.7471V28.8828Z" fill="#8ABFAD"/>
<path d="M65.1123 28.8828H64.748V29.8205H65.1123V28.8828Z" fill="#8BC0AD"/>
<path d="M65.4756 28.8828H65.1113V29.8205H65.4756V28.8828Z" fill="#8CC0AE"/>
<path d="M65.8408 28.8828H65.4766V29.8205H65.8408V28.8828Z" fill="#8DC1AF"/>
<path d="M66.2041 28.8828H65.8398V29.8205H66.2041V28.8828Z" fill="#8EC1AF"/>
<path d="M66.5694 28.8828H66.2051V29.8205H66.5694V28.8828Z" fill="#8FC1B0"/>
<path d="M66.9326 28.8828H66.5684V29.8205H66.9326V28.8828Z" fill="#90C2B0"/>
<path d="M67.2979 28.8828H66.9336V29.8205H67.2979V28.8828Z" fill="#91C2B1"/>
<path d="M67.6592 28.8828H67.2949V29.8205H67.6592V28.8828Z" fill="#92C3B2"/>
<path d="M68.0244 28.8828H67.6602V29.8205H68.0244V28.8828Z" fill="#93C3B2"/>
<path d="M68.3877 28.8828H68.0234V29.8205H68.3877V28.8828Z" fill="#94C4B3"/>
<path d="M68.753 28.8828H68.3887V29.8205H68.753V28.8828Z" fill="#95C4B4"/>
<path d="M69.1162 28.8828H68.752V29.8205H69.1162V28.8828Z" fill="#96C5B4"/>
<path d="M69.4815 28.8828H69.1172V29.8205H69.4815V28.8828Z" fill="#97C5B5"/>
<path d="M69.8447 28.8828H69.4805V29.8205H69.8447V28.8828Z" fill="#98C6B6"/>
<path d="M70.21 28.8828H69.8457V29.8205H70.21V28.8828Z" fill="#99C6B6"/>
<path d="M70.5733 28.8828H70.209V29.8205H70.5733V28.8828Z" fill="#9AC7B7"/>
<path d="M70.9385 28.8828H70.5742V29.8205H70.9385V28.8828Z" fill="#9BC7B8"/>
<path d="M71.3018 28.8828H70.9375V29.8205H71.3018V28.8828Z" fill="#9CC8B8"/>
<path d="M71.667 28.8828H71.3027V29.8205H71.667V28.8828Z" fill="#9DC8B9"/>
<path d="M72.0303 28.8828H71.666V29.8205H72.0303V28.8828Z" fill="#9FC9BA"/>
<path d="M72.3955 28.8828H72.0312V29.8205H72.3955V28.8828Z" fill="#A0C9BA"/>
<path d="M72.7588 28.8828H72.3945V29.8205H72.7588V28.8828Z" fill="#A1CABB"/>
<path d="M73.1241 28.8828H72.7598V29.8205H73.1241V28.8828Z" fill="#A2CABC"/>
<path d="M73.4893 28.8828H73.125V29.8205H73.4893V28.8828Z" fill="#A3CBBC"/>
<path d="M73.8526 28.8828H73.4883V29.8205H73.8526V28.8828Z" fill="#A4CBBD"/>
<path d="M74.2178 28.8828H73.8535V29.8205H74.2178V28.8828Z" fill="#A5CCBE"/>
<path d="M74.5811 28.8828H74.2168V29.8205H74.5811V28.8828Z" fill="#A6CCBE"/>
<path d="M74.9463 28.8828H74.582V29.8205H74.9463V28.8828Z" fill="#A7CDBF"/>
<path d="M75.3096 28.8828H74.9453V29.8205H75.3096V28.8828Z" fill="#A8CDC0"/>
<path d="M75.6709 28.8828H75.3066V29.8205H75.6709V28.8828Z" fill="#A9CEC1"/>
<path d="M76.0362 28.8828H75.6719V29.8205H76.0362V28.8828Z" fill="#AACFC1"/>
<path d="M76.3994 28.8828H76.0352V29.8205H76.3994V28.8828Z" fill="#ACCFC2"/>
<path d="M76.7647 28.8828H76.4004V29.8205H76.7647V28.8828Z" fill="#ADD0C3"/>
<path d="M77.128 28.8828H76.7637V29.8205H77.128V28.8828Z" fill="#AED0C3"/>
<path d="M77.4932 28.8828H77.1289V29.8205H77.4932V28.8828Z" fill="#AFD1C4"/>
<path d="M77.8565 28.8828H77.4922V29.8205H77.8565V28.8828Z" fill="#B0D1C5"/>
<path d="M78.2217 28.8828H77.8574V29.8205H78.2217V28.8828Z" fill="#B1D2C6"/>
<path d="M78.585 28.8828H78.2207V29.8205H78.585V28.8828Z" fill="#B2D2C6"/>
<path d="M78.9502 28.8828H78.5859V29.8205H78.9502V28.8828Z" fill="#B3D3C7"/>
<path d="M79.3155 28.8828H78.9512V29.8205H79.3155V28.8828Z" fill="#B4D4C8"/>
<path d="M79.6787 28.8828H79.3145V29.8205H79.6787V28.8828Z" fill="#B6D4C9"/>
<path d="M80.044 28.8828H79.6797V29.8205H80.044V28.8828Z" fill="#B7D5C9"/>
<path d="M80.4073 28.8828H80.043V29.8205H80.4073V28.8828Z" fill="#B8D5CA"/>
<path d="M80.7725 28.8828H80.4082V29.8205H80.7725V28.8828Z" fill="#B9D6CB"/>
<path d="M81.1358 28.8828H80.7715V29.8205H81.1358V28.8828Z" fill="#BAD7CC"/>
<path d="M81.501 28.8828H81.1367V29.8205H81.501V28.8828Z" fill="#BBD7CC"/>
<path d="M81.8643 28.8828H81.5V29.8205H81.8643V28.8828Z" fill="#BCD8CD"/>
<path d="M82.2295 28.8828H81.8652V29.8205H82.2295V28.8828Z" fill="#BED8CE"/>
<path d="M82.5928 28.8828H82.2285V29.8205H82.5928V28.8828Z" fill="#BFD9CF"/>
<path d="M82.958 28.8828H82.5938V29.8205H82.958V28.8828Z" fill="#C0DACF"/>
<path d="M83.3194 28.8828H82.9551V29.8205H83.3194V28.8828Z" fill="#C1DAD0"/>
<path d="M83.6826 28.8828H83.3184V29.8205H83.6826V28.8828Z" fill="#C2DBD1"/>
<path d="M84.0479 28.8828H83.6836V29.8205H84.0479V28.8828Z" fill="#C3DBD2"/>
<path d="M84.4112 28.8828H84.0469V29.8205H84.4112V28.8828Z" fill="#C5DCD3"/>
<path d="M84.7764 28.8828H84.4121V29.8205H84.7764V28.8828Z" fill="#C6DDD3"/>
<path d="M85.1416 28.8828H84.7773V29.8205H85.1416V28.8828Z" fill="#C7DDD4"/>
<path d="M85.5049 28.8828H85.1406V29.8205H85.5049V28.8828Z" fill="#C8DED5"/>
<path d="M85.8701 28.8828H85.5059V29.8205H85.8701V28.8828Z" fill="#C9DFD6"/>
<path d="M86.2334 28.8828H85.8691V29.8205H86.2334V28.8828Z" fill="#CADFD7"/>
<path d="M86.5987 28.8828H86.2344V29.8205H86.5987V28.8828Z" fill="#CCE0D8"/>
<path d="M86.9619 28.8828H86.5977V29.8205H86.9619V28.8828Z" fill="#CDE0D8"/>
<path d="M87.3272 28.8828H86.9629V29.8205H87.3272V28.8828Z" fill="#CEE1D9"/>
<path d="M87.6905 28.8828H87.3262V29.8205H87.6905V28.8828Z" fill="#CFE2DA"/>
<path d="M88.0557 28.8828H87.6914V29.8205H88.0557V28.8828Z" fill="#D0E2DB"/>
<path d="M88.419 28.8828H88.0547V29.8205H88.419V28.8828Z" fill="#D1E3DC"/>
<path d="M88.7842 28.8828H88.4199V29.8205H88.7842V28.8828Z" fill="#D3E4DD"/>
<path d="M89.1475 28.8828H88.7832V29.8205H89.1475V28.8828Z" fill="#D4E4DD"/>
<path d="M89.5127 28.8828H89.1484V29.8205H89.5127V28.8828Z" fill="#D5E5DE"/>
<path d="M89.876 28.8828H89.5117V29.8205H89.876V28.8828Z" fill="#D6E6DF"/>
<path d="M90.2412 28.8828H89.877V29.8205H90.2412V28.8828Z" fill="#D7E7E0"/>
<path d="M90.6045 28.8828H90.2402V29.8205H90.6045V28.8828Z" fill="#D9E7E1"/>
<path d="M90.9698 28.8828H90.6055V29.8205H90.9698V28.8828Z" fill="#DAE8E2"/>
<path d="M91.3311 28.8828H90.9668V29.8205H91.3311V28.8828Z" fill="#DBE9E3"/>
<path d="M91.6963 28.8828H91.332V29.8205H91.6963V28.8828Z" fill="#DCE9E4"/>
<path d="M92.0596 28.8828H91.6953V29.8205H92.0596V28.8828Z" fill="#DEEAE5"/>
<path d="M92.4248 28.8828H92.0605V29.8205H92.4248V28.8828Z" fill="#DFEBE6"/>
<path d="M92.7881 28.8828H92.4238V29.8205H92.7881V28.8828Z" fill="#E0ECE7"/>
<path d="M93.1533 28.8828H92.7891V29.8205H93.1533V28.8828Z" fill="#E1ECE7"/>
<path d="M93.5166 28.8828H93.1523V29.8205H93.5166V28.8828Z" fill="#E3EDE8"/>
<path d="M93.8819 28.8828H93.5176V29.8205H93.8819V28.8828Z" fill="#E4EEE9"/>
<path d="M94.2451 28.8828H93.8809V29.8205H94.2451V28.8828Z" fill="#E5EFEA"/>
<path d="M94.6104 28.8828H94.2461V29.8205H94.6104V28.8828Z" fill="#E7EFEB"/>
<path d="M94.9737 28.8828H94.6094V29.8205H94.9737V28.8828Z" fill="#E8F0EC"/>
<path d="M95.3389 28.8828H94.9746V29.8205H95.3389V28.8828Z" fill="#E9F1ED"/>
<path d="M95.7022 28.8828H95.3379V29.8205H95.7022V28.8828Z" fill="#EBF2EE"/>
<path d="M96.0674 28.8828H95.7031V29.8205H96.0674V28.8828Z" fill="#ECF3EF"/>
<path d="M96.4307 28.8828H96.0664V29.8205H96.4307V28.8828Z" fill="#EDF3F0"/>
<path d="M96.7959 28.8828H96.4316V29.8205H96.7959V28.8828Z" fill="#EFF4F1"/>
<path d="M97.1592 28.8828H96.7949V29.8205H97.1592V28.8828Z" fill="#F0F5F2"/>
<path d="M97.5244 28.8828H97.1602V29.8205H97.5244V28.8828Z" fill="#F1F6F3"/>
<path d="M97.8877 28.8828H97.5234V29.8205H97.8877V28.8828Z" fill="#F3F7F4"/>
<path d="M98.253 28.8828H97.8887V29.8205H98.253V28.8828Z" fill="#F4F8F6"/>
<path d="M98.6162 28.8828H98.252V29.8205H98.6162V28.8828Z" fill="#F5F9F7"/>
<path d="M98.9815 28.8828H98.6172V29.8205H98.9815V28.8828Z" fill="#F7FAF8"/>
<path d="M99.3428 28.8828H98.9785V29.8205H99.3428V28.8828Z" fill="#F9FBFA"/>
<path d="M99.708 28.8828H99.3438V29.8205H99.708V28.8828Z" fill="#FAFCFB"/>
<path d="M100.071 28.8828H99.707V29.8205H100.071V28.8828Z" fill="#FDFEFD"/>
<path d="M100.437 28.8828H100.072V29.8205H100.437V28.8828Z" fill="white"/>
</g>
</g>
<defs>
<clipPath id="clip0_3014_20336">
<rect width="154" height="31.9065" fill="white"/>
</clipPath>
</defs>
</svg>
